<?xml version="1.0" encoding="utf-8"?>
<!-- Generator: Adobe Illustrator 18.1.0, SVG Export Plug-In . SVG Version: 6.00 Build 0)  -->
<svg version="1.1" id="Calque_1" xmlns="http://www.w3.org/2000/svg" xmlns:xlink="http://www.w3.org/1999/xlink" x="0px" y="0px"
	 viewBox="0 0 32 32" enable-background="new 0 0 32 32" xml:space="preserve">
<g>
	<path fill="#1D1D1B" d="M32.5,16 M16.5,32 M0.5,16 M16.5,0 M16.5,4 M16.5,28"/>
</g>
<g>
	<path fill="#1D1D1B" d="M16,0C7.1,0,0,7.1,0,16c0,8.8,7.1,16,16,16c8.8,0,16-7.2,16-16C32,7.1,24.8,0,16,0z M16,28
		C9.4,28,4,22.6,4,16C4,9.4,9.4,4,16,4c6.6,0,12,5.4,12,12C28,22.6,22.6,28,16,28z"/>
</g>
<g>
	<path fill="#1D1D1B" d="M20.1,15.9c-0.7,0.6-1.9,1.1-2.2,1.3c-0.3,0.2-0.3,0.3-0.3,0.7v0.5h-4v-1.3c0-0.9,0.1-1.5,1.1-2.1l1.4-0.7
		c0.5-0.3,1.2-0.5,1.2-1.1c0-0.5-0.5-0.8-1.7-0.8c-1.1,0-2.3,0.5-3.1,1L11.4,10c0.5-0.3,2.1-1.3,5-1.3c2.9,0,5,1.8,5,4
		C21.5,14.5,20.8,15.2,20.1,15.9z M15.6,23.7c-1.5,0-2.6-0.8-2.6-2.3s1.1-2.3,2.6-2.3c1.5,0,2.6,0.8,2.6,2.3
		C18.2,22.9,17.1,23.7,15.6,23.7z"/>
</g>
</svg>
