<?xml version="1.0" encoding="utf-8"?>
<!-- Generator: Adobe Illustrator 18.1.0, SVG Export Plug-In . SVG Version: 6.00 Build 0)  -->
<svg version="1.1" id="Calque_1" xmlns="http://www.w3.org/2000/svg" xmlns:xlink="http://www.w3.org/1999/xlink" x="0px" y="0px"
	 viewBox="0 0 35 32.2" enable-background="new 0 0 35 32.2" xml:space="preserve">
<path fill="#1D1D1B" d="M18.9,0C11.2,0,4.7,5.5,3.1,12.8H0.7c-0.7,0-0.9,0.5-0.6,1l4.7,7.6c0,0,0.2,0.3,0.4,0.3
	c0.3,0,0.5-0.3,0.5-0.3l4.7-7.6c0.4-0.6,0.1-1-0.6-1H8.3C9.7,8.3,13.9,5,18.9,5C25,5,30,10,30,16.1c0,6.1-5,11.1-11.1,11.1
	c-2.5,0-4.9-0.8-6.8-2.4c-1.1-0.9-2.7-0.7-3.5,0.4C7.7,26.4,7.9,28,9,28.8c2.9,2.2,6.3,3.4,9.9,3.4C27.8,32.2,35,25,35,16.1
	C35,7.2,27.8,0,18.9,0z"/>
</svg>
